<svg width="2681" height="500" viewBox="0 0 2681 500" fill="none" xmlns="http://www.w3.org/2000/svg">
<g clip-path="url(#clip0_591_2809)">
<path d="M250.818 423.438C232.119 437.5 208.746 443.75 185.373 443.75C160.441 445.312 135.51 435.937 116.811 421.875C98.1124 406.25 85.6467 384.375 82.5302 359.375V357.812L133.952 348.437V350C135.51 362.5 141.743 375 152.65 384.375C163.558 393.75 176.023 396.875 188.489 396.875C214.979 396.875 230.561 384.375 230.561 365.625C230.561 354.687 224.328 343.75 182.256 337.5C121.486 326.563 93.4378 303.125 93.4378 260.938C93.4378 251.563 96.5542 242.187 99.6707 232.812C104.345 223.437 110.578 217.188 118.369 210.938C137.068 198.437 157.325 190.625 180.698 192.188C200.955 192.188 221.212 198.437 238.352 210.938C255.493 223.438 266.4 240.625 271.075 260.938V262.5L224.328 276.563V275C221.212 265.625 216.537 256.25 208.746 250C200.955 243.75 191.606 240.625 180.698 239.063C158.883 239.063 143.301 248.437 143.301 262.5C143.301 276.562 157.325 282.812 191.606 289.062C252.376 298.438 278.866 321.875 278.866 364.062C278.866 375 277.308 385.937 271.075 396.875C264.842 407.812 260.167 415.625 250.818 423.438ZM180.698 137.5C144.859 137.5 110.578 148.437 80.972 167.187C51.3658 187.5 27.9925 215.625 13.9685 248.437C-0.0554328 281.25 -3.17187 318.75 3.06101 353.125C9.29389 387.5 26.4343 420.312 52.9241 445.312C77.8556 470.313 110.578 487.5 144.859 495.313C179.14 501.563 216.537 498.437 249.26 484.375C281.982 470.313 310.03 446.875 330.287 417.188C350.544 387.5 359.893 353.125 359.893 317.187C359.893 268.75 341.195 223.438 306.914 189.063C272.633 154.688 227.445 137.5 180.698 137.5ZM2379.35 151.562H2466.61V184.375C2477.51 170.313 2491.54 159.375 2507.12 151.562C2522.7 143.75 2539.84 140.625 2558.54 140.625C2633.34 140.625 2681.64 192.188 2681.64 273.438V489.062H2589.71V289.062C2589.71 242.188 2571.01 218.75 2530.49 218.75C2488.42 218.75 2468.17 251.563 2468.17 306.25V490.625H2380.91V151.562H2379.35ZM2209.5 389.062C2218.85 379.687 2225.08 368.75 2229.76 357.812C2234.43 346.875 2235.99 334.375 2235.99 321.875C2235.99 296.875 2228.2 271.875 2209.5 253.125C2201.71 243.75 2192.36 237.5 2181.45 232.812C2170.55 228.125 2158.08 225 2147.17 226.562C2095.75 226.562 2058.35 267.188 2058.35 323.438C2058.35 379.688 2095.75 418.75 2147.17 418.75C2159.64 418.75 2170.55 417.187 2181.45 412.5C2192.36 404.687 2201.71 398.437 2209.5 389.062ZM2321.69 321.875C2321.69 421.875 2250.01 500 2145.61 500C2042.77 500 1969.54 420.313 1969.54 320.312C1969.54 220.312 2042.77 140.625 2147.17 140.625C2251.57 140.625 2321.69 218.75 2321.69 321.875ZM1601.8 148.438H1657.89V51.5625H1745.15V148.438H1905.65V223.438H1745.15V370.313C1743.59 376.563 1745.15 382.812 1746.71 389.062C1748.27 395.312 1751.38 401.562 1756.06 404.687C1760.73 409.375 1765.41 412.5 1771.64 415.625C1777.87 417.188 1784.11 418.75 1790.34 418.75C1821.5 418.75 1838.64 395.313 1835.53 353.125L1918.11 360.938C1922.79 443.75 1866.69 496.875 1793.46 496.875C1706.2 496.875 1656.33 446.875 1656.33 365.625V221.875H1600.24V148.438H1601.8ZM1449.09 387.5C1456.88 378.125 1464.67 367.187 1469.35 356.25C1474.02 345.312 1475.58 332.813 1475.58 320.312C1477.14 295.312 1467.79 270.313 1450.65 251.563C1442.86 242.188 1433.51 235.937 1422.6 229.687C1411.69 223.437 1399.23 221.875 1388.32 223.438C1336.9 223.438 1299.5 264.063 1299.5 320.312C1299.5 376.562 1336.9 415.625 1388.32 415.625C1400.78 415.625 1411.69 414.063 1422.6 409.375C1430.39 403.125 1441.3 395.312 1449.09 387.5ZM1561.28 318.75C1561.28 418.75 1489.6 496.875 1385.2 496.875C1280.8 496.875 1209.12 418.75 1209.12 318.75C1209.12 218.75 1280.8 139.062 1385.2 139.062C1489.6 139.062 1561.28 217.187 1561.28 318.75ZM850.733 0H937.993V181.25C950.459 167.188 966.041 156.25 981.623 148.438C998.764 140.625 1017.46 137.5 1036.16 137.5C1110.96 137.5 1153.03 189.062 1153.03 270.312V487.5H1065.77V285.937C1065.77 239.062 1045.51 215.625 1006.55 215.625C964.483 215.625 936.435 248.437 936.435 303.125V487.5H849.175V0H850.733ZM631.024 215.625C677.77 215.625 702.702 190.625 702.702 148.438C702.702 106.25 676.212 82.8125 631.024 82.8125H507.924V215.625H631.024ZM422.222 0H637.257C732.308 0 791.52 62.5 791.52 150C791.52 237.5 733.866 300 637.257 300H509.483V487.5H422.222V0Z" fill="white"/>
</g>
<defs>
<clipPath id="clip0_591_2809">
<rect width="2680.14" height="500" fill="white"/>
</clipPath>
</defs>
</svg>
