<?xml version="1.0" encoding="UTF-8" standalone="no"?>
<!-- Created with Inkscape (http://www.inkscape.org/) -->

<svg
   version="1.1"
   id="svg18"
   width="259.55722"
   height="258.41733"
   viewBox="0 0 259.55722 258.41733"
   sodipodi:docname="415175-PDN1C6-624.eps"
   xmlns:inkscape="http://www.inkscape.org/namespaces/inkscape"
   xmlns:sodipodi="http://sodipodi.sourceforge.net/DTD/sodipodi-0.dtd"
   xmlns="http://www.w3.org/2000/svg"
   xmlns:svg="http://www.w3.org/2000/svg">
  <defs
     id="defs22" />
  <sodipodi:namedview
     id="namedview20"
     pagecolor="#ffffff"
     bordercolor="#000000"
     borderopacity="0.25"
     inkscape:showpageshadow="2"
     inkscape:pageopacity="0.0"
     inkscape:pagecheckerboard="0"
     inkscape:deskcolor="#d1d1d1"
     showgrid="false" />
  <g
     id="g26"
     inkscape:groupmode="layer"
     inkscape:label="Page 1"
     transform="matrix(1.3333333,0,0,-1.3333333,-359.22867,598.01598)"
     style="display:none" />
  <g
     inkscape:groupmode="layer"
     id="layer1"
     inkscape:label="Page 2"
     inkscape:export-filename="layer1.svg"
     inkscape:export-xdpi="96"
     inkscape:export-ydpi="96"
     transform="translate(-359.22867,-68.650688)">
    <path
       d="m 3319.02,3883.14 c -63.53,-12.01 -126.13,-23.76 -173.19,-32.4 -139.45,-25.62 -398.44,-468.91 -434.06,-536.95 37.54,8.3 182.76,90.79 271.34,141.12 42.04,23.88 75.24,42.74 91.03,50.63 19.01,9.5 46,15.53 75.12,19.51 29.4,102.16 115.38,262.25 169.76,358.09"
       style="fill:#f03d66;fill-opacity:1;fill-rule:nonzero;stroke:none"
       id="path156"
       transform="matrix(0.13333333,0,0,-0.13333333,0,666.66667)" />
    <path
       d="m 3470.18,3911.84 c -39.94,-7.62 -85.69,-16.32 -131.83,-25.05 -52.4,-91.74 -141.15,-254.85 -172.97,-359.79 25.42,2.8 51.79,4.3 74.61,5.33 61.89,112.93 141.43,248.71 230.19,379.51"
       style="fill:#7ad0aa;fill-opacity:1;fill-rule:nonzero;stroke:none"
       id="path158"
       transform="matrix(0.13333333,0,0,-0.13333333,0,666.66667)" />
    <path
       d="m 4030.38,3171.78 c -95.87,-54.38 -255.97,-140.38 -358.1,-169.76 -3.97,-29.11 -10,-56.11 -19.51,-75.12 -7.89,-15.79 -26.75,-48.99 -50.62,-91.02 -47.71,-83.98 -133.95,-235.8 -141.37,-271.48 67.22,35.11 511.52,294.46 537.2,434.19 8.64,47.06 20.39,109.66 32.4,173.19"
       style="fill:#f03d66;fill-opacity:1;fill-rule:nonzero;stroke:none"
       id="path160"
       transform="matrix(0.13333333,0,0,-0.13333333,0,666.66667)" />
    <path
       d="m 4059.81,3326.79 c -110.44,-78.94 -237.35,-155 -379.97,-227.77 -1.04,-24.19 -2.54,-53.06 -5.6,-80.88 104.9,31.81 268.03,120.56 359.78,172.96 9.02,47.64 18,94.85 25.79,135.69"
       style="fill:#7ad0aa;fill-opacity:1;fill-rule:nonzero;stroke:none"
       id="path162"
       transform="matrix(0.13333333,0,0,-0.13333333,0,666.66667)" />
    <path
       d="m 3175.5,2925.74 c 2.81,-2.56 3.27,-6.81 1.07,-9.9 -8.02,-11.29 -26.24,-42.26 -26.12,-64.74 19.98,8.71 70.68,33.77 111.14,78.64 -59.83,26.08 -162.35,141.31 -194.88,203.52 -28.51,-22.74 -64.07,-58.41 -83.77,-106.06 7.92,0.19 22.75,2.84 46.06,15.44 1.13,0.6 2.35,0.89 3.57,0.89 2.05,0 4.08,-0.85 5.53,-2.45 2.33,-2.54 2.62,-6.34 0.71,-9.21 -1.12,-1.67 -106.42,-160.57 -111.05,-230.7 33.34,9.87 149.53,48.14 237.79,124.68 2.85,2.48 7.14,2.43 9.95,-0.11"
       style="fill:#f9b61c;fill-opacity:1;fill-rule:nonzero;stroke:none"
       id="path164"
       transform="matrix(0.13333333,0,0,-0.13333333,0,666.66667)" />
    <path
       d="m 3674.24,3018.14 c 3.06,27.82 4.56,56.69 5.6,80.88 142.62,72.77 269.53,148.83 379.97,227.77 -7.79,-40.84 -16.77,-88.05 -25.79,-135.69 -91.75,-52.4 -254.88,-141.15 -359.78,-172.96 z M 3460.78,2564.4 c 7.42,35.68 93.66,187.5 141.37,271.48 23.87,42.03 42.73,75.23 50.62,91.02 9.51,19.01 15.54,46.01 19.51,75.12 102.13,29.38 262.23,115.38 358.1,169.76 -12.01,-63.53 -23.76,-126.13 -32.4,-173.19 C 3972.3,2858.86 3528,2599.51 3460.78,2564.4 Z m 664.43,1839.78 c 38.63,-85.62 91.09,-161.08 164.89,-236.86 81.56,-83.76 161.39,-141.3 250.6,-180.71 -13.63,-39.53 -28.96,-79.49 -46.08,-119 -70.34,40.28 -143,95.55 -216.06,164.39 -108.41,102.14 -195.04,223.61 -244.61,342.86 30.22,10.87 60.76,20.54 91.26,29.32 z m 493.6,57.88 c 20.1,-40.54 1.33,-239.46 -73.21,-461.27 -86.95,38.59 -164.92,95.01 -244.76,177 -71.97,73.89 -123.35,147.34 -161.15,230.5 164.19,45.51 323.98,61.81 419.76,61.81 32.56,0 50.45,-2.1 56.33,-4.06 0.01,0 1.29,-0.47 3.03,-3.98 z M 3338.35,3886.79 c 46.14,8.73 91.89,17.43 131.83,25.05 -88.76,-130.8 -168.3,-266.58 -230.19,-379.51 -22.82,-1.03 -49.19,-2.53 -74.61,-5.33 31.82,104.94 120.57,268.05 172.97,359.79 z m -355.24,-431.88 c -88.58,-50.33 -233.8,-132.82 -271.34,-141.12 35.62,68.04 294.61,511.33 434.06,536.95 47.06,8.64 109.66,20.39 173.19,32.4 -54.38,-95.84 -140.36,-255.93 -169.76,-358.09 -29.12,-3.98 -56.11,-10.01 -75.12,-19.51 -15.79,-7.89 -48.99,-26.75 -91.03,-50.63 z m 138.19,-189.35 c 6.15,20.12 254.81,539.68 534.32,867.81 92.85,109 226.41,184.3 364.61,235.66 50.38,-121.14 138.14,-244.41 248.04,-347.95 74.72,-70.39 149.09,-126.71 221.17,-167.68 -57.21,-128.34 -134.47,-253.5 -235.72,-349.12 -194.04,-183.27 -472.14,-353.96 -826.55,-507.35 -13.93,-6.01 -23.12,-10 -27.24,-12.06 -0.03,-0.01 -0.56,-0.27 -1.99,-0.27 -30.05,0 -155.49,91.14 -230.91,184.44 -33.86,41.88 -50.07,76.26 -45.73,96.52 z m -49.86,-102.48 c 3.72,13.95 23.3,40.71 41.65,63.47 7.83,-19.31 21.8,-41.61 42.27,-66.93 56.68,-70.12 153.02,-150.56 209.64,-179.19 -29.8,-20.49 -64.32,-40.03 -85.29,-40.03 -2.58,0 -4.84,0.32 -6.7,0.96 -74.62,25.3 -207.4,199.08 -201.57,221.72 z m -32.63,-131.21 c 1.91,2.87 1.62,6.67 -0.71,9.21 -1.45,1.6 -3.48,2.45 -5.53,2.45 -1.22,0 -2.44,-0.29 -3.57,-0.89 -23.31,-12.6 -38.14,-15.25 -46.06,-15.44 19.7,47.65 55.26,83.32 83.77,106.06 32.53,-62.21 135.05,-177.44 194.88,-203.52 -40.46,-44.87 -91.16,-69.93 -111.14,-78.64 -0.12,22.48 18.1,53.45 26.12,64.74 2.2,3.09 1.74,7.34 -1.07,9.9 -2.81,2.54 -7.1,2.59 -9.95,0.11 -88.26,-76.54 -204.45,-114.81 -237.79,-124.68 4.63,70.13 109.93,229.03 111.05,230.7 z m 98.33,-193.41 c 0.56,-2 1.94,-3.68 3.79,-4.62 1.85,-0.96 4.01,-1.09 5.96,-0.39 3.78,1.36 77.33,28.5 131.1,92.07 0.58,-0.02 1.12,-0.12 1.72,-0.12 0.01,0 0,0 0.01,0 26.79,0 68.3,24.56 101.25,47.98 6.64,-2.42 12.4,-3.78 16.97,-3.78 3.31,0 6.24,0.62 8.69,1.85 3.76,1.88 13.29,6.01 26.49,11.72 81.2,35.14 158.21,71.24 231.36,108.15 -0.19,-4.04 -0.39,-8.2 -0.61,-12.43 -0.06,-1.14 -0.13,-2.29 -0.19,-3.43 -0.15,-2.78 -0.31,-5.6 -0.48,-8.43 -0.13,-2.1 -0.26,-4.21 -0.4,-6.34 -0.12,-1.86 -0.25,-3.73 -0.38,-5.61 -0.2,-2.87 -0.41,-5.75 -0.64,-8.64 -0.08,-1.07 -0.17,-2.14 -0.26,-3.2 -0.29,-3.52 -0.58,-7.04 -0.91,-10.56 -0.03,-0.32 -0.07,-0.64 -0.1,-0.96 -3.56,-37.74 -9.71,-75.23 -21.16,-98.12 -7.71,-15.43 -27.43,-50.12 -50.25,-90.31 -119.33,-210.09 -151.19,-275.4 -142.02,-291.16 1.9,-3.26 5.21,-5.14 9.08,-5.14 2.31,0 4.78,0.67 7.52,2.04 5.15,2.57 518.99,283.16 549.04,446.85 16.84,91.67 45.46,242.27 64.84,343.87 68.72,50.13 131.09,101.34 186.45,153.63 163.21,154.14 264.88,384.45 320.85,582.98 7.84,27.45 14.81,54.28 20.9,80.2 28.4,120.07 38.45,219.99 34.2,275.03 -0.61,8.91 -1.58,16.56 -2.93,22.68 -0.56,2.52 -1.2,4.79 -1.88,6.95 -0.02,0.07 -0.04,0.13 -0.06,0.19 -0.54,1.68 -1.11,3.25 -1.72,4.71 -0.13,0.3 -0.23,0.7 -0.36,0.99 -0.09,0.19 -0.2,0.34 -0.29,0.54 -0.12,0.26 -0.23,0.55 -0.35,0.8 -0.04,0.08 -0.07,0.19 -0.11,0.27 -0.19,0.38 -0.41,0.67 -0.61,1.03 -0.37,0.68 -0.72,1.39 -1.11,2.01 -0.04,0.07 -0.09,0.13 -0.13,0.2 -0.1,0.16 -0.21,0.28 -0.31,0.43 -0.27,0.4 -0.55,0.76 -0.83,1.13 -0.48,0.64 -0.96,1.26 -1.47,1.82 -0.17,0.18 -0.34,0.37 -0.51,0.54 -0.21,0.22 -0.43,0.42 -0.65,0.62 -0.62,0.58 -1.27,1.09 -1.93,1.56 -0.21,0.15 -0.41,0.34 -0.63,0.48 -0.12,0.08 -0.25,0.15 -0.37,0.22 -1.02,0.62 -2.07,1.14 -3.18,1.51 -1.58,0.53 -3.45,1 -5.55,1.42 -0.17,0.03 -0.38,0.06 -0.55,0.09 -1.96,0.37 -4.06,0.72 -6.34,1.02 -14.93,1.96 -35.77,2.32 -48.89,2.32 -0.01,0 -0.01,0 -0.02,0 -0.01,0 -0.03,0 -0.04,0 -215.69,0 -684.48,-71.49 -914.94,-342.03 -55.87,-65.58 -110.4,-138.59 -162.02,-213.68 -101.5,-19.37 -248.82,-47.35 -339.07,-63.92 -163.54,-30.05 -444.26,-543.9 -446.84,-549.05 -2.56,-5.1 -2.73,-9.52 -0.5,-13.12 1.47,-2.37 4.55,-5.21 10.89,-5.21 28.5,0 145.42,65.11 283.87,143.75 40.18,22.83 74.88,42.54 90.31,50.26 22.89,11.44 60.38,17.59 98.12,21.16 0.32,0.03 0.64,0.06 0.96,0.09 3.52,0.33 7.04,0.63 10.55,0.91 1.07,0.09 2.14,0.18 3.2,0.26 2.9,0.23 5.78,0.44 8.65,0.64 1.87,0.13 3.75,0.26 5.61,0.38 2.12,0.14 4.24,0.27 6.34,0.4 2.83,0.17 5.64,0.33 8.42,0.48 1.15,0.07 2.3,0.13 3.43,0.19 1.85,0.1 3.63,0.18 5.45,0.27 -76.15,-140.02 -123.49,-241.46 -124.87,-247.91 -1.61,-7.48 -1.14,-16.01 0.93,-25.32 -19.62,-23.69 -45.58,-57.56 -50.69,-76.72 -1.2,-4.5 0.04,-11.19 3.23,-19.48 -32.14,-25 -73.89,-66.29 -94.67,-123.79 -1.31,-3.61 0.32,-7.63 3.78,-9.3 1.71,-0.82 14.77,-6.27 43.08,4.15 -31.47,-49.95 -104.29,-172.27 -99.51,-227.9 0.19,-2.19 1.33,-4.2 3.13,-5.47 1.29,-0.9 2.8,-1.38 4.34,-1.38 0.63,0 1.24,0.08 1.86,0.23 1.33,0.34 121.43,31.66 223.11,106.51 -7.2,-16.48 -12.68,-36.09 -8.15,-52.06"
       style="fill:#282834;fill-opacity:1;fill-rule:nonzero;stroke:none"
       id="path166"
       transform="matrix(0.13333333,0,0,-0.13333333,0,666.66667)" />
    <path
       d="m 3273.01,2941.36 c 1.86,-0.64 4.12,-0.96 6.7,-0.96 20.97,0 55.49,19.54 85.29,40.03 -56.62,28.63 -152.96,109.07 -209.64,179.19 -20.47,25.32 -34.44,47.62 -42.27,66.93 -18.35,-22.76 -37.93,-49.52 -41.65,-63.47 -5.83,-22.64 126.95,-196.42 201.57,-221.72"
       style="fill:#f03d66;fill-opacity:1;fill-rule:nonzero;stroke:none"
       id="path168"
       transform="matrix(0.13333333,0,0,-0.13333333,0,666.66667)" />
    <path
       d="m 3857.32,4106.38 c 24.51,8.49 49.55,12.8 74.46,12.8 190.44,0 326.72,-240.07 333.25,-341.42 4.4,-68.19 -110.52,-199.91 -210.27,-291.99 -99.77,-92.1 -250.08,-204.9 -345.35,-219.72 -12.82,-1.99 -25.76,-3 -38.44,-3 -71.86,0 -139.88,32.87 -186.62,90.18 -46.96,57.56 -66.54,133.1 -52.39,202.06 29.72,144.88 234.48,484.85 425.36,551.09 z m -690.29,-937.34 c 75.42,-93.3 200.86,-184.44 230.91,-184.44 1.43,0 1.96,0.26 1.99,0.27 4.12,2.06 13.31,6.05 27.24,12.06 354.41,153.39 632.51,324.08 826.55,507.35 101.25,95.62 178.51,220.78 235.72,349.12 -72.08,40.97 -146.45,97.29 -221.17,167.68 -109.9,103.54 -197.66,226.81 -248.04,347.95 -138.2,-51.36 -271.76,-126.66 -364.61,-235.66 -279.51,-328.13 -528.17,-847.69 -534.32,-867.81 -4.34,-20.26 11.87,-54.64 45.73,-96.52"
       style="fill:#f49f62;fill-opacity:1;fill-rule:nonzero;stroke:none"
       id="path170"
       transform="matrix(0.13333333,0,0,-0.13333333,0,666.66667)" />
    <path
       d="m 4278.56,4032 c 73.06,-68.84 145.72,-124.11 216.06,-164.39 17.12,39.51 32.45,79.47 46.08,119 -89.21,39.41 -169.04,96.95 -250.6,180.71 -73.8,75.78 -126.26,151.24 -164.89,236.86 -30.5,-8.78 -61.04,-18.45 -91.26,-29.32 49.57,-119.25 136.2,-240.72 244.61,-342.86"
       style="fill:#7ad0aa;fill-opacity:1;fill-rule:nonzero;stroke:none"
       id="path172"
       transform="matrix(0.13333333,0,0,-0.13333333,0,666.66667)" />
    <path
       d="m 4615.78,4466.04 c -5.88,1.96 -23.77,4.06 -56.33,4.06 -95.78,0 -255.57,-16.3 -419.76,-61.81 37.8,-83.16 89.18,-156.61 161.15,-230.5 79.84,-81.99 157.81,-138.41 244.76,-177 74.54,221.81 93.31,420.73 73.21,461.27 -1.74,3.51 -3.02,3.98 -3.03,3.98"
       style="fill:#f03d66;fill-opacity:1;fill-rule:nonzero;stroke:none"
       id="path174"
       transform="matrix(0.13333333,0,0,-0.13333333,0,666.66667)" />
    <path
       d="m 3707.11,3280.88 c 75.66,11.77 208.12,96.51 337.48,215.92 126.19,116.48 208.77,229 205.48,280.01 -6.1,94.41 -139.56,327.37 -318.29,327.37 -23.23,0 -46.62,-4.04 -69.53,-11.98 -186.32,-64.64 -386.45,-397.83 -415.6,-539.92 -13.25,-64.6 5.19,-135.46 49.32,-189.57 51.65,-63.33 130.85,-94.3 211.14,-81.83"
       style="fill:#c5ecf3;fill-opacity:1;fill-rule:nonzero;stroke:none"
       id="path176"
       transform="matrix(0.13333333,0,0,-0.13333333,0,666.66667)" />
    <path
       d="m 3446.65,3552.28 c 29.15,142.09 229.28,475.28 415.6,539.92 22.91,7.94 46.3,11.98 69.53,11.98 178.73,0 312.19,-232.96 318.29,-327.37 3.29,-51.01 -79.29,-163.53 -205.48,-280.01 -129.36,-119.41 -261.82,-204.15 -337.48,-215.92 -80.29,-12.47 -159.49,18.5 -211.14,81.83 -44.13,54.11 -62.57,124.97 -49.32,189.57 z m 37.7,-199.05 c 46.74,-57.31 114.76,-90.18 186.62,-90.18 12.68,0 25.62,1.01 38.44,3 95.27,14.82 245.58,127.62 345.35,219.72 99.75,92.08 214.67,223.8 210.27,291.99 -6.53,101.35 -142.81,341.42 -333.25,341.42 -24.91,0 -49.95,-4.31 -74.46,-12.8 -190.88,-66.24 -395.64,-406.21 -425.36,-551.09 -14.15,-68.96 5.43,-144.5 52.39,-202.06"
       style="fill:#282834;fill-opacity:1;fill-rule:nonzero;stroke:none"
       id="path178"
       transform="matrix(0.13333333,0,0,-0.13333333,0,666.66667)" />
    <path
       d="m 3735.35,3494.34 c -70.5,-42.59 -160.95,-86.57 -250.11,-117.29 3.41,-4.88 6.94,-9.69 10.73,-14.34 51.65,-63.33 130.85,-94.3 211.14,-81.83 75.66,11.77 208.12,96.51 337.48,215.92 126.19,116.48 208.77,229 205.48,280.01 -2.31,35.81 -22.99,91.56 -57.47,146.96 -76.25,-194.34 -285.73,-325.8 -457.25,-429.43"
       style="fill:#9bdef1;fill-opacity:1;fill-rule:nonzero;stroke:none"
       id="path180"
       transform="matrix(0.13333333,0,0,-0.13333333,0,666.66667)" />
    <path
       d="m 3774.21,3943.5 c -40.16,2.91 -72.74,-33.96 -94.07,-64.45 -18.85,-26.93 -42.66,-65.02 -36.88,-99.18 1.36,-8.03 11.48,-10.65 17.79,-7.24 26.8,14.46 47.12,46.75 69.63,67.43 24.98,22.93 55.55,39.48 66.88,72.79 5.4,15.85 -8.57,29.59 -23.35,30.65"
       style="fill:#f4fbf6;fill-opacity:1;fill-rule:nonzero;stroke:none"
       id="path182"
       transform="matrix(0.13333333,0,0,-0.13333333,0,666.66667)" />
    <path
       d="m 3914.97,4030.79 c -19.91,4.43 -35.29,-3.29 -49.57,-16.86 -10.42,-9.91 -21.65,-25.68 -21.25,-40.69 0.23,-8.62 8.64,-12.31 15.87,-9.11 10.46,4.62 19.46,12.95 29.94,17.98 5.03,2.41 10.58,3.71 15.67,6.12 6.77,3.23 11.78,6.76 17.52,11.55 10.63,8.86 4.75,28.13 -8.18,31.01"
       style="fill:#f4fbf6;fill-opacity:1;fill-rule:nonzero;stroke:none"
       id="path184"
       transform="matrix(0.13333333,0,0,-0.13333333,0,666.66667)" />
    <path
       d="m 3662.19,4040.28 c -0.38,-0.14 -0.76,-0.27 -1.14,-0.41 -14.1,-5.13 -14.1,-23.5 0,-28.63 0.38,-0.13 0.76,-0.28 1.14,-0.41 9.46,-3.44 19.33,5.4 19.33,14.72 0,9.33 -9.87,18.17 -19.33,14.73"
       style="fill:#282834;fill-opacity:1;fill-rule:nonzero;stroke:none"
       id="path186"
       transform="matrix(0.13333333,0,0,-0.13333333,0,666.66667)" />
    <path
       d="m 3557.19,3907.78 c -0.38,-0.13 -0.76,-0.27 -1.14,-0.41 -14.1,-5.13 -14.1,-23.5 0,-28.63 0.38,-0.14 0.76,-0.27 1.14,-0.41 9.46,-3.44 19.33,5.4 19.33,14.73 0,9.32 -9.87,18.16 -19.33,14.72"
       style="fill:#282834;fill-opacity:1;fill-rule:nonzero;stroke:none"
       id="path188"
       transform="matrix(0.13333333,0,0,-0.13333333,0,666.66667)" />
    <path
       d="m 3469.69,3775.28 c -0.38,-0.13 -0.76,-0.27 -1.14,-0.41 -14.1,-5.13 -14.1,-23.5 0,-28.63 0.38,-0.14 0.76,-0.27 1.14,-0.41 9.46,-3.44 19.33,5.4 19.33,14.73 0,9.32 -9.87,18.16 -19.33,14.72"
       style="fill:#282834;fill-opacity:1;fill-rule:nonzero;stroke:none"
       id="path190"
       transform="matrix(0.13333333,0,0,-0.13333333,0,666.66667)" />
    <path
       d="m 3396.14,3622.1 c -0.38,-0.14 -0.76,-0.28 -1.14,-0.42 -14.1,-5.13 -14.1,-23.49 0,-28.62 0.38,-0.14 0.76,-0.28 1.14,-0.42 9.46,-3.44 19.33,5.41 19.33,14.73 0,9.32 -9.87,18.17 -19.33,14.73"
       style="fill:#282834;fill-opacity:1;fill-rule:nonzero;stroke:none"
       id="path192"
       transform="matrix(0.13333333,0,0,-0.13333333,0,666.66667)" />
    <path
       d="m 3388.64,3442.1 c -0.38,-0.14 -0.76,-0.28 -1.14,-0.42 -14.1,-5.13 -14.1,-23.49 0,-28.62 0.38,-0.14 0.76,-0.28 1.14,-0.42 9.46,-3.44 19.33,5.41 19.33,14.73 0,9.32 -9.87,18.17 -19.33,14.73"
       style="fill:#282834;fill-opacity:1;fill-rule:nonzero;stroke:none"
       id="path194"
       transform="matrix(0.13333333,0,0,-0.13333333,0,666.66667)" />
    <path
       d="m 3508.64,3279.6 c -0.38,-0.14 -0.76,-0.28 -1.14,-0.42 -14.1,-5.13 -14.1,-23.49 0,-28.62 0.38,-0.14 0.76,-0.28 1.14,-0.42 9.46,-3.44 19.33,5.41 19.33,14.73 0,9.32 -9.87,18.17 -19.33,14.73"
       style="fill:#282834;fill-opacity:1;fill-rule:nonzero;stroke:none"
       id="path196"
       transform="matrix(0.13333333,0,0,-0.13333333,0,666.66667)" />
    <path
       d="m 3706.14,3242.1 c -0.38,-0.14 -0.76,-0.28 -1.14,-0.42 -14.1,-5.13 -14.1,-23.49 0,-28.62 0.38,-0.14 0.76,-0.28 1.14,-0.42 9.46,-3.44 19.33,5.41 19.33,14.73 0,9.32 -9.87,18.17 -19.33,14.73"
       style="fill:#282834;fill-opacity:1;fill-rule:nonzero;stroke:none"
       id="path198"
       transform="matrix(0.13333333,0,0,-0.13333333,0,666.66667)" />
    <path
       d="m 3871.14,3309.6 c -0.38,-0.14 -0.76,-0.28 -1.14,-0.42 -14.1,-5.13 -14.1,-23.49 0,-28.62 0.38,-0.14 0.76,-0.28 1.14,-0.42 9.46,-3.44 19.33,5.41 19.33,14.73 0,9.32 -9.87,18.17 -19.33,14.73"
       style="fill:#282834;fill-opacity:1;fill-rule:nonzero;stroke:none"
       id="path200"
       transform="matrix(0.13333333,0,0,-0.13333333,0,666.66667)" />
    <path
       d="m 4016.14,3414.6 c -0.38,-0.14 -0.76,-0.28 -1.14,-0.42 -14.1,-5.13 -14.1,-23.49 0,-28.62 0.38,-0.14 0.76,-0.28 1.14,-0.42 9.46,-3.44 19.33,5.41 19.33,14.73 0,9.32 -9.87,18.17 -19.33,14.73"
       style="fill:#282834;fill-opacity:1;fill-rule:nonzero;stroke:none"
       id="path202"
       transform="matrix(0.13333333,0,0,-0.13333333,0,666.66667)" />
    <path
       d="m 4138.64,3532.1 c -0.38,-0.14 -0.76,-0.28 -1.14,-0.42 -14.1,-5.13 -14.1,-23.49 0,-28.62 0.38,-0.14 0.76,-0.28 1.14,-0.42 9.46,-3.44 19.33,5.41 19.33,14.73 0,9.32 -9.87,18.17 -19.33,14.73"
       style="fill:#282834;fill-opacity:1;fill-rule:nonzero;stroke:none"
       id="path204"
       transform="matrix(0.13333333,0,0,-0.13333333,0,666.66667)" />
    <path
       d="m 4246.14,3652.1 c -0.38,-0.14 -0.76,-0.28 -1.14,-0.42 -14.1,-5.13 -14.1,-23.49 0,-28.62 0.38,-0.14 0.76,-0.28 1.14,-0.42 9.46,-3.44 19.33,5.41 19.33,14.73 0,9.32 -9.87,18.17 -19.33,14.73"
       style="fill:#282834;fill-opacity:1;fill-rule:nonzero;stroke:none"
       id="path206"
       transform="matrix(0.13333333,0,0,-0.13333333,0,666.66667)" />
    <path
       d="m 4291.14,3817.1 c -0.38,-0.14 -0.76,-0.28 -1.14,-0.42 -14.1,-5.13 -14.1,-23.49 0,-28.62 0.38,-0.14 0.76,-0.28 1.14,-0.42 9.46,-3.44 19.33,5.41 19.33,14.73 0,9.32 -9.87,18.17 -19.33,14.73"
       style="fill:#282834;fill-opacity:1;fill-rule:nonzero;stroke:none"
       id="path208"
       transform="matrix(0.13333333,0,0,-0.13333333,0,666.66667)" />
    <path
       d="m 4218.64,3982.1 c -0.38,-0.14 -0.76,-0.28 -1.14,-0.42 -14.1,-5.13 -14.1,-23.49 0,-28.62 0.38,-0.14 0.76,-0.28 1.14,-0.42 9.46,-3.44 19.33,5.41 19.33,14.73 0,9.32 -9.87,18.17 -19.33,14.73"
       style="fill:#282834;fill-opacity:1;fill-rule:nonzero;stroke:none"
       id="path210"
       transform="matrix(0.13333333,0,0,-0.13333333,0,666.66667)" />
    <path
       d="m 4063.64,4137.1 c -0.38,-0.14 -0.76,-0.28 -1.14,-0.42 -14.1,-5.13 -14.1,-23.49 0,-28.63 0.38,-0.13 0.76,-0.27 1.14,-0.41 9.46,-3.44 19.33,5.41 19.33,14.73 0,9.32 -9.87,18.17 -19.33,14.73"
       style="fill:#282834;fill-opacity:1;fill-rule:nonzero;stroke:none"
       id="path212"
       transform="matrix(0.13333333,0,0,-0.13333333,0,666.66667)" />
    <path
       d="m 3851.14,4159.6 c -0.38,-0.14 -0.76,-0.28 -1.14,-0.42 -14.1,-5.13 -14.1,-23.49 0,-28.63 0.38,-0.13 0.76,-0.27 1.14,-0.41 9.46,-3.44 19.33,5.41 19.33,14.73 0,9.32 -9.87,18.17 -19.33,14.73"
       style="fill:#282834;fill-opacity:1;fill-rule:nonzero;stroke:none"
       id="path214"
       transform="matrix(0.13333333,0,0,-0.13333333,0,666.66667)" />
    <path
       d="m 3075.29,3118.34 c -13.78,-15.29 -24.37,-35.98 -34.86,-52.63 15.51,-0.5 31.33,0.13 46.84,-0.37 5.67,-58.55 -50.07,-111.22 -60.31,-167.63 56.2,-6.88 104.64,65.05 160.28,72.2 -0.74,-22.04 0.72,-47.75 5.34,-69.3 17.44,2.79 37.42,16.98 56.07,35.81 -55.8,32.24 -137.06,122.52 -173.36,181.92"
       style="fill:#f68a22;fill-opacity:1;fill-rule:nonzero;stroke:none"
       id="path216"
       transform="matrix(0.13333333,0,0,-0.13333333,0,666.66667)" />
    <path
       d="m 3124.29,3051.56 c -18.36,-16.26 -38.87,-68.22 -39.16,-88.19 24.13,2.55 58.56,18.59 84.24,38.52 -15.63,15.8 -30.95,32.75 -45.08,49.67"
       style="fill:#f36126;fill-opacity:1;fill-rule:nonzero;stroke:none"
       id="path218"
       transform="matrix(0.13333333,0,0,-0.13333333,0,666.66667)" />
    <path
       d="m 3097.94,3774.81 c -31.52,-10.9 -56.82,-39.95 -79.5,-63.31 -26.92,-27.74 -53.59,-57.92 -66.9,-94.7 -4.9,-13.54 13.8,-22.76 23.18,-13.5 25.67,25.35 44.18,57.21 66.66,85.27 20.37,25.43 48.89,47.56 64.05,76.49 2.53,4.81 -1.65,11.77 -7.49,9.75"
       style="fill:#f26386;fill-opacity:1;fill-rule:nonzero;stroke:none"
       id="path220"
       transform="matrix(0.13333333,0,0,-0.13333333,0,666.66667)" />
    <path
       d="m 2925.56,3568.58 c -10.06,-13.27 -20.91,-26.03 -28.66,-40.79 -4.92,-9.39 6.91,-18.9 14.73,-11.36 12.65,12.19 22.36,27.02 32.81,41.11 8.45,11.38 -10.51,22.09 -18.88,11.04"
       style="fill:#f26386;fill-opacity:1;fill-rule:nonzero;stroke:none"
       id="path222"
       transform="matrix(0.13333333,0,0,-0.13333333,0,666.66667)" />
    <path
       d="m 3808.7,2863.59 c -41.25,-21.69 -82.41,-55.8 -115.07,-88.92 -6.54,-6.64 1.73,-16.73 9.71,-12.58 41.39,21.56 85.89,50.84 118.85,84.01 9.13,9.19 -2.42,23.31 -13.49,17.49"
       style="fill:#f26386;fill-opacity:1;fill-rule:nonzero;stroke:none"
       id="path224"
       transform="matrix(0.13333333,0,0,-0.13333333,0,666.66667)" />
    <path
       d="m 3890.37,2930.98 c -5.35,-2.9 -10.11,-5.76 -14.77,-9.7 -4.31,-3.63 -8.61,-7.27 -12.92,-10.91 -8.93,-7.54 3.17,-23.35 12.54,-16.25 4.49,3.4 8.98,6.8 13.47,10.2 4.9,3.71 8.76,7.63 12.8,12.24 6.81,7.79 -1.7,19.53 -11.12,14.42"
       style="fill:#f26386;fill-opacity:1;fill-rule:nonzero;stroke:none"
       id="path226"
       transform="matrix(0.13333333,0,0,-0.13333333,0,666.66667)" />
    <path
       d="m 4618.81,4462.06 c -1.74,3.51 -3.02,3.98 -3.03,3.98 -2.39,0.79 -6.88,1.6 -13.42,2.3 -46.42,-113.34 -112.28,-217.81 -187.07,-314.43 -12.43,-16.06 -25.1,-31.76 -37.88,-47.31 54.19,-45.11 109.12,-79.59 168.19,-105.81 74.54,221.81 93.31,420.73 73.21,461.27"
       style="fill:#ee254c;fill-opacity:1;fill-rule:nonzero;stroke:none"
       id="path228"
       transform="matrix(0.13333333,0,0,-0.13333333,0,666.66667)" />
    <path
       d="m 4297.6,4014.5 c 66.63,-60.7 132.79,-110.11 197.02,-146.89 17.12,39.51 32.45,79.47 46.08,119 -60.8,26.86 -117.23,62.16 -172.83,108.42 -22.93,-27.51 -46.39,-54.3 -70.27,-80.53"
       style="fill:#54c393;fill-opacity:1;fill-rule:nonzero;stroke:none"
       id="path230"
       transform="matrix(0.13333333,0,0,-0.13333333,0,666.66667)" />
    <path
       d="m 4287.48,4003.43 c -25.04,-27.22 -50.52,-53.9 -76.35,-80.21 32.37,-54.68 51.55,-109.03 53.9,-145.46 4.4,-68.19 -110.52,-199.91 -210.27,-291.99 -99.77,-92.1 -250.08,-204.9 -345.35,-219.72 -12.82,-1.99 -25.76,-3 -38.44,-3 -64.32,0 -125.52,26.4 -171.18,73.03 -105.88,-62.58 -214.8,-120.77 -323.03,-178.59 76.02,-89.12 192.37,-172.89 221.18,-172.89 1.43,0 1.96,0.26 1.99,0.27 4.12,2.06 13.31,6.05 27.24,12.06 354.41,153.39 632.51,324.08 826.55,507.35 101.25,95.62 178.51,220.78 235.72,349.12 -65.9,37.46 -133.72,87.89 -201.96,150.03"
       style="fill:#f07745;fill-opacity:1;fill-rule:nonzero;stroke:none"
       id="path232"
       transform="matrix(0.13333333,0,0,-0.13333333,0,666.66667)" />
    <path
       d="m 4417.85,4420.22 c -25.12,4.5 -46.9,-0.01 -71.74,-4.95 -31.75,-6.31 -65.54,-10.37 -95.6,-22.65 -7.66,-3.14 -10.79,-17.31 0,-18.83 29.35,-4.16 59.25,-1.06 88.76,0.44 29.06,1.48 56.02,1.4 82.82,13.5 13.71,6.19 10.36,29.87 -4.24,32.49"
       style="fill:#f26386;fill-opacity:1;fill-rule:nonzero;stroke:none"
       id="path234"
       transform="matrix(0.13333333,0,0,-0.13333333,0,666.66667)" />
    <path
       d="m 4492.29,4418.3 -13.6,3.1 c -6.36,1.44 -11.87,-0.13 -17.66,-2.56 -6.09,-2.54 -9.57,-12.05 -2.06,-15.71 5.34,-2.59 10.53,-5.08 16.64,-4.5 5.58,0.52 11.16,1.78 16.68,2.72 8.68,1.48 8.16,15.1 0,16.95"
       style="fill:#f26386;fill-opacity:1;fill-rule:nonzero;stroke:none"
       id="path236"
       transform="matrix(0.13333333,0,0,-0.13333333,0,666.66667)" />
    <path
       d="m 3859.76,4264.42 c -59.11,-3.28 -126.37,-70.62 -138.82,-127.33 -1.65,-7.49 6.89,-16.55 14.35,-11.02 23.26,17.24 42.62,39.17 66.16,56.39 23.44,17.16 51.12,28.52 71.84,49.29 11.31,11.32 3.52,33.62 -13.53,32.67"
       style="fill:#f5b87d;fill-opacity:1;fill-rule:nonzero;stroke:none"
       id="path238"
       transform="matrix(0.13333333,0,0,-0.13333333,0,666.66667)" />
    <path
       d="m 3963.21,4316.7 c -15.89,-3.3 -32.23,-13.01 -44.55,-23.56 -8.74,-7.49 0.74,-20.03 10.45,-17.95 16,3.43 33.21,11.25 45.51,21.93 9.5,8.25 -0.79,21.79 -11.41,19.58"
       style="fill:#f5b87d;fill-opacity:1;fill-rule:nonzero;stroke:none"
       id="path240"
       transform="matrix(0.13333333,0,0,-0.13333333,0,666.66667)" />
    <path
       d="m 2876.55,2956.51 c -47.44,-36.88 -88.76,-86.89 -127.07,-132.93 -6.35,-7.63 3.69,-18.19 11.04,-11.05 43.34,42.09 90.32,87.44 123.7,138.06 3.32,5.04 -3.64,9.05 -7.67,5.92"
       style="fill:#414055;fill-opacity:1;fill-rule:nonzero;stroke:none"
       id="path242"
       transform="matrix(0.13333333,0,0,-0.13333333,0,666.66667)" />
    <path
       d="m 2873.91,2789.12 c -57.17,-60.82 -121.36,-119.39 -170.97,-186.6 -5.02,-6.79 5.37,-13.43 11.04,-8.52 62.6,54.25 115.56,122.54 171.25,183.79 6.92,7.61 -4.22,18.88 -11.32,11.33"
       style="fill:#414055;fill-opacity:1;fill-rule:nonzero;stroke:none"
       id="path244"
       transform="matrix(0.13333333,0,0,-0.13333333,0,666.66667)" />
    <path
       d="m 2964.6,2716.21 c -10.14,-14.46 -24.39,-29.67 -29.5,-46.8 -1.57,-5.27 4.81,-7.96 8.49,-4.95 13.8,11.31 22.39,30.56 31.81,45.44 4.36,6.9 -6.24,12.81 -10.8,6.31"
       style="fill:#414055;fill-opacity:1;fill-rule:nonzero;stroke:none"
       id="path246"
       transform="matrix(0.13333333,0,0,-0.13333333,0,666.66667)" />
    <path
       d="m 3094.63,2743.44 c -13.96,-13.03 -27.25,-25.87 -39.19,-40.81 -6.29,-7.86 3.19,-17.49 11.04,-11.05 14.79,12.13 27.45,25.59 40.3,39.7 7.45,8.19 -4.03,19.75 -12.15,12.16"
       style="fill:#414055;fill-opacity:1;fill-rule:nonzero;stroke:none"
       id="path248"
       transform="matrix(0.13333333,0,0,-0.13333333,0,666.66667)" />
  </g>
</svg>
